<?xml version="1.0" standalone="no"?>
<!DOCTYPE svg PUBLIC "-//W3C//DTD SVG 20010904//EN"
 "http://www.w3.org/TR/2001/REC-SVG-20010904/DTD/svg10.dtd">
<svg version="1.0" xmlns="http://www.w3.org/2000/svg"
 width="310.000000pt" height="310.000000pt" viewBox="0 0 310.000000 310.000000"
 preserveAspectRatio="xMidYMid meet">
<metadata>
Created by potrace 1.14, written by Peter Selinger 2001-2017
</metadata>
<g transform="translate(0.000000,310.000000) scale(0.100000,-0.100000)"
fill="#000000" stroke="none">
<path d="M1335 3085 c-149 -24 -245 -50 -370 -100 -479 -193 -824 -612 -937
-1138 -32 -149 -31 -435 1 -592 122 -599 560 -1060 1151 -1211 36 -9 74 -17
85 -19 11 -1 45 -6 75 -11 104 -16 425 -9 482 11 7 2 27 6 43 8 127 19 333 99
483 189 146 88 327 246 411 358 14 19 28 37 32 40 30 27 150 239 200 355 35
82 74 233 93 360 15 97 16 375 2 435 -4 14 -9 41 -12 60 -15 98 -71 273 -116
369 -220 460 -618 772 -1113 873 -125 25 -391 32 -510 13z"/>
</g>
</svg>
